<svg width="23" height="19" viewBox="0 0 23 19" fill="none" xmlns="http://www.w3.org/2000/svg">
<path d="M18.75 10.75H13.75C13.3984 10.75 13.125 11.0625 13.125 11.375C13.125 11.7266 13.3984 12 13.75 12H18.75C19.0625 12 19.375 11.7266 19.375 11.375C19.375 11.0625 19.0625 10.75 18.75 10.75ZM7.5 9.5C8.86719 9.5 10 8.40625 10 7C10 5.63281 8.86719 4.5 7.5 4.5C6.09375 4.5 5 5.63281 5 7C5 8.40625 6.09375 9.5 7.5 9.5ZM7.5 5.75C8.16406 5.75 8.75 6.33594 8.75 7C8.75 7.70312 8.16406 8.25 7.5 8.25C6.79688 8.25 6.25 7.70312 6.25 7C6.25 6.33594 6.79688 5.75 7.5 5.75ZM8.75 10.75H6.25C4.49219 10.75 3.125 12.1562 3.125 13.875C3.125 14.2266 3.39844 14.5 3.75 14.5C4.0625 14.5 4.375 14.2266 4.375 13.875C4.375 12.8594 5.19531 12 6.25 12H8.75C9.76562 12 10.625 12.8594 10.625 13.875C10.625 14.2266 10.8984 14.5 11.25 14.5C11.5625 14.5 11.875 14.2266 11.875 13.875C11.875 12.1562 10.4688 10.75 8.75 10.75ZM20 0.75H2.5C1.09375 0.75 0 1.88281 0 3.25V15.75C0 17.1562 1.09375 18.25 2.5 18.25H20C21.3672 18.25 22.5 17.1562 22.5 15.75V3.25C22.5 1.88281 21.3672 0.75 20 0.75ZM21.25 15.75C21.25 16.4531 20.6641 17 20 17H2.5C1.79688 17 1.25 16.4531 1.25 15.75V3.25C1.25 2.58594 1.79688 2 2.5 2H20C20.6641 2 21.25 2.58594 21.25 3.25V15.75ZM18.75 8.25H13.75C13.3984 8.25 13.125 8.5625 13.125 8.875C13.125 9.22656 13.3984 9.5 13.75 9.5H18.75C19.0625 9.5 19.375 9.22656 19.375 8.875C19.375 8.5625 19.0625 8.25 18.75 8.25ZM18.75 5.75H13.75C13.3984 5.75 13.125 6.0625 13.125 6.375C13.125 6.72656 13.3984 7 13.75 7H18.75C19.0625 7 19.375 6.72656 19.375 6.375C19.375 6.0625 19.0625 5.75 18.75 5.75Z" fill="#888EA5"/>
</svg>
