<svg width="32" height="32" viewBox="0 0 32 32" fill="none" xmlns="http://www.w3.org/2000/svg">
<rect width="32" height="32" rx="8" fill="#98ACCC"/>
<path d="M22 11H10C8.875 11 8 11.9062 8 13V21C8 22.125 8.875 23 10 23H22C23.0938 23 24 22.125 24 21V13C24 11.9062 23.0938 11 22 11ZM10 12H22C22.5312 12 23 12.4688 23 13V14.1562L16.875 18.7188C16.3438 19.125 15.625 19.125 15.0938 18.7188L9 14.125V13C9 12.4688 9.4375 12 10 12ZM23 21C23 21.5625 22.5312 22 22 22H10C9.4375 22 9 21.5625 9 21V15.375L14.5 19.5C14.9375 19.8438 15.4688 20.0312 16 20.0312C16.5 20.0312 17.0312 19.8438 17.5 19.5L23 15.375V21Z" fill="white"/>
</svg>
