<svg width="28" height="28" viewBox="0 0 28 28" fill="none" xmlns="http://www.w3.org/2000/svg">
<rect width="28" height="28" rx="10" fill="#CBB677"/>
<path d="M12.6875 12.875C12.9062 12.875 13.125 13.0938 13.125 13.3125C13.125 13.5586 12.9062 13.75 12.6875 13.75H9.1875C8.94141 13.75 8.75 13.5586 8.75 13.3125C8.75 13.0938 8.94141 12.875 9.1875 12.875H12.6875ZM8.75 15.9375C8.75 15.7188 8.94141 15.5 9.1875 15.5H18.8125C19.0312 15.5 19.25 15.7188 19.25 15.9375C19.25 16.1836 19.0312 16.375 18.8125 16.375H9.1875C8.94141 16.375 8.75 16.1836 8.75 15.9375ZM14.875 11.7812C14.875 11.1797 15.3398 10.6875 15.9688 10.6875H18.1562C18.7578 10.6875 19.25 11.1797 19.25 11.7812V13.0938C19.25 13.7227 18.7578 14.1875 18.1562 14.1875H15.9688C15.3398 14.1875 14.875 13.7227 14.875 13.0938V11.7812ZM15.75 11.7812V13.0938C15.75 13.2305 15.832 13.3125 15.9688 13.3125H18.1562C18.2656 13.3125 18.375 13.2305 18.375 13.0938V11.7812C18.375 11.6719 18.2656 11.5625 18.1562 11.5625H15.9688C15.832 11.5625 15.75 11.6719 15.75 11.7812ZM6.125 10.25C6.125 9.29297 6.89062 8.5 7.875 8.5H20.125C21.082 8.5 21.875 9.29297 21.875 10.25V17.25C21.875 18.2344 21.082 19 20.125 19H7.875C6.89062 19 6.125 18.2344 6.125 17.25V10.25ZM7 10.25V17.25C7 17.7422 7.38281 18.125 7.875 18.125H20.125C20.5898 18.125 21 17.7422 21 17.25V10.25C21 9.78516 20.5898 9.375 20.125 9.375H7.875C7.38281 9.375 7 9.78516 7 10.25Z" fill="white"/>
</svg>
