<svg width="32" height="32" viewBox="0 0 32 32" fill="none" xmlns="http://www.w3.org/2000/svg">
<rect width="32" height="32" rx="10" fill="#C5AD96"/>
<path d="M20.4688 14.4688C20.3125 14.375 20.1875 14.25 20.0625 14.0938C19.9375 14.25 19.8125 14.375 19.6562 14.4688C19.1875 14.8125 18.625 15 18.0312 15C17.4062 15 16.8438 14.8125 16.4062 14.4688C16.25 14.375 16.0938 14.25 15.9688 14.0938C15.8438 14.25 15.7188 14.375 15.5625 14.4688C15.125 14.8125 14.5625 15 13.9375 15C13.3438 15 12.7812 14.8125 12.3125 14.4688C12.1562 14.375 12.0312 14.25 11.9062 14.0938C11.7812 14.25 11.6562 14.375 11.5 14.4688C11.0312 14.8125 10.4688 15 9.875 15C9.75 15 9.625 15 9.5 15C7.75 14.75 6.9375 12.7188 7.875 11.25L9.65625 8.4375C9.8125 8.15625 10.0938 8 10.4062 8H21.5625C21.875 8 22.1562 8.15625 22.3125 8.4375L24.0938 11.25C25.0312 12.7188 24.2188 14.75 22.4688 15C22.3438 15 22.2188 15 22.0938 15C21.4688 15 20.9062 14.8125 20.4688 14.4688ZM21.5 9H10.4688L8.71875 11.7812C8.125 12.7188 8.71875 13.875 9.625 14C9.71875 14 9.78125 14 9.875 14C10.375 14 10.8438 13.7812 11.1562 13.4375C11.3438 13.2188 11.625 13.0938 11.9062 13.0938C12.1875 13.0938 12.4688 13.2188 12.6562 13.4375C12.9688 13.7812 13.4375 14 13.9375 14C14.4688 14 14.9062 13.7812 15.25 13.4375C15.4375 13.2188 15.6875 13.0938 15.9688 13.0938C16.25 13.0938 16.5312 13.2188 16.7188 13.4375C17.0312 13.7812 17.5 14 18.0312 14C18.5312 14 19 13.7812 19.3125 13.4375C19.5 13.2188 19.7812 13.0938 20.0625 13.0938C20.3438 13.0938 20.5938 13.2188 20.7812 13.4375C21.125 13.7812 21.5625 14 22.0938 14C22.1875 14 22.25 14 22.3438 14C23.25 13.875 23.8438 12.7188 23.25 11.7812L21.5 9ZM10 16.5V19H22V16.5C22 16.25 22.2188 16 22.5 16C22.75 16 23 16.25 23 16.5V22C23 23.125 22.0938 24 21 24H11C9.875 24 9 23.125 9 22V16.5C9 16.25 9.21875 16 9.5 16C9.75 16 10 16.25 10 16.5ZM10 22C10 22.5625 10.4375 23 11 23H21C21.5312 23 22 22.5625 22 22V20H10V22Z" fill="white"/>
</svg>
