<svg width="18" height="21" viewBox="0 0 18 21" fill="none" xmlns="http://www.w3.org/2000/svg">
<path d="M15 0.498047H2.5C1.09375 0.498047 0 1.63086 0 2.99805V14.248C0 15.6543 1.09375 16.748 2.5 16.748H4.17969L2.77344 18.4668C2.46094 18.8574 2.38281 19.3652 2.61719 19.7949C2.8125 20.2246 3.24219 20.498 3.75 20.498H13.7109C14.2188 20.498 14.6484 20.2246 14.8438 19.7949C15.0781 19.3652 15 18.8574 14.6875 18.4668L13.2812 16.748H15C16.3672 16.748 17.5 15.6543 17.5 14.248V2.99805C17.5 1.63086 16.3672 0.498047 15 0.498047ZM13.7109 19.248H3.75L5.82031 16.748H11.6406L13.7109 19.248ZM16.25 14.248C16.25 14.9512 15.6641 15.498 15 15.498H2.5C1.79688 15.498 1.25 14.9512 1.25 14.248V2.99805C1.25 2.33398 1.79688 1.74805 2.5 1.74805H15C15.6641 1.74805 16.25 2.33398 16.25 2.99805V14.248ZM8.75 3.62305C5.97656 3.62305 3.75 5.88867 3.75 8.62305C3.75 11.3965 6.01562 13.623 8.75 13.623C11.4844 13.623 13.75 11.3965 13.75 8.62305C13.75 5.88867 11.4844 3.62305 8.75 3.62305ZM8.75 12.373C6.67969 12.373 5 10.6934 5 8.62305C5 6.5918 6.67969 4.87305 8.75 4.87305C10.7812 4.87305 12.5 6.5918 12.5 8.62305C12.5 10.6934 10.7812 12.373 8.75 12.373Z" fill="#888EA5"/>
</svg>
