<svg width="33" height="57" viewBox="0 0 33 57" fill="none" xmlns="http://www.w3.org/2000/svg">
<path d="M1.94922 0.5L26.1581 13.0138L26.1702 54.7678L1.96128 42.2654L1.94922 0.5Z" fill="url(#paint0_linear_2859_327212)"/>
<path d="M0 2.23242L24.2089 14.7462L24.221 56.5002L0.012063 43.9978L0 2.23242Z" fill="url(#paint1_linear_2859_327212)"/>
<path opacity="0.64" d="M3.125 26.542L21.3078 36.0338L21.3558 51.0976L3.17307 41.6058L3.125 26.542Z" fill="url(#paint2_linear_2859_327212)"/>
<path opacity="0.32" d="M3.38574 22.6138L19.5331 30.8952V32.436L3.38574 24.1545V22.6138Z" fill="white"/>
<path opacity="0.2" d="M0 2.23242L24.1969 14.6935L24.221 21.8769L0.012057 9.42712L0 2.23242Z" fill="url(#paint3_linear_2859_327212)"/>
<path opacity="0.2" d="M5.20874 8.58413C5.20874 10.2122 4.21906 11.0093 3.00367 10.3479C1.78828 9.68647 0.78125 7.83793 0.78125 6.1929C0.78125 4.56482 1.77092 3.76775 2.98631 4.42915C4.21906 5.09056 5.20874 6.95606 5.20874 8.58413Z" fill="white"/>
<path d="M12.3916 26.0989L12.3613 18.3989L32.9703 28.9231L33.0006 36.6231L12.3916 26.0989Z" fill="url(#paint4_linear_2859_327212)"/>
<path opacity="0.32" d="M3.48047 16.6665L10.5229 20.2932V21.5743L3.48047 17.9476V16.6665Z" fill="white"/>
<path opacity="0.32" d="M3.48047 19.2646L10.5229 22.8913V24.1724L3.48047 20.5458V19.2646Z" fill="white"/>
<defs>
<linearGradient id="paint0_linear_2859_327212" x1="36.3235" y1="3.67666" x2="-17.6183" y2="30.3483" gradientUnits="userSpaceOnUse">
<stop stop-color="#E2E8F1"/>
<stop offset="1" stop-color="white" stop-opacity="0"/>
</linearGradient>
<linearGradient id="paint1_linear_2859_327212" x1="24.0655" y1="7.52613" x2="-18.6955" y2="38.4576" gradientUnits="userSpaceOnUse">
<stop stop-color="#134A89"/>
<stop offset="1" stop-color="white" stop-opacity="0"/>
</linearGradient>
<linearGradient id="paint2_linear_2859_327212" x1="6.33138" y1="26.8739" x2="16.2517" y2="49.1851" gradientUnits="userSpaceOnUse">
<stop stop-color="white"/>
<stop offset="1" stop-color="white" stop-opacity="0"/>
</linearGradient>
<linearGradient id="paint3_linear_2859_327212" x1="8.20792" y1="2.21171" x2="14.9332" y2="21.6323" gradientUnits="userSpaceOnUse">
<stop stop-color="white"/>
<stop offset="1" stop-color="white" stop-opacity="0"/>
</linearGradient>
<linearGradient id="paint4_linear_2859_327212" x1="29.7466" y1="21.0064" x2="20.6514" y2="40.5395" gradientUnits="userSpaceOnUse">
<stop stop-color="#CBB677"/>
<stop offset="1" stop-color="#CBB677" stop-opacity="0"/>
</linearGradient>
</defs>
</svg>
