<svg width="63" height="95" viewBox="0 0 63 95" fill="none" xmlns="http://www.w3.org/2000/svg">
<path d="M57.5785 0.5L0.125 40.3454L0.133353 94.1418L57.5868 54.2963L57.5785 0.5Z" fill="url(#paint0_linear_3039_213552)"/>
<path d="M57.5775 0.5L0.199219 40.2952V47.5919L57.5775 7.79663V0.5Z" fill="url(#paint1_linear_3039_213552)"/>
<path d="M63.0005 24.8696L48.1484 35.1672V40.1153L63.0005 29.8177V24.8696Z" fill="#98ACCC"/>
<path d="M22.0527 52.4609L7.20898 62.7585V67.7066L22.0527 57.409V52.4609Z" fill="#98ACCC"/>
<path opacity="0.6" d="M28.9857 57.4375L0 77.5409V92.4854L28.9857 72.382V57.4375Z" fill="url(#paint2_linear_3039_213552)"/>
<path d="M31.7923 59.1235L2.80664 79.2269V94.1714L31.7923 74.0681V59.1235Z" fill="url(#paint3_linear_3039_213552)"/>
<path opacity="0.8" d="M29.6461 63.6514L25.2773 66.6824V71.6305L29.6461 68.5994V63.6514Z" fill="white"/>
<path opacity="0.8" d="M24.2652 67.5532L19.8965 70.5843V75.5323L24.2652 72.5013V67.5532Z" fill="white"/>
<path opacity="0.8" d="M18.8863 71.2192L14.5176 74.2503V79.1984L18.8863 76.1673V71.2192Z" fill="white"/>
<path opacity="0.8" d="M13.5094 75.1216L9.14062 78.1526V83.1007L13.5094 80.0696V75.1216Z" fill="white"/>
<path d="M52.9618 18.4268L20 41.2902V42.9764L52.9618 20.1129V18.4268Z" fill="#98ACCC"/>
<path d="M52.9642 21.8311L24.5215 41.553V43.2392L52.9642 23.5172V21.8311Z" fill="#98ACCC"/>
<path d="M52.9649 25.1929L28.7656 41.9741V43.6603L52.9649 26.879V25.1929Z" fill="#98ACCC"/>
<path opacity="0.6" d="M58.8336 35.168L34.7012 51.899V66.8436L58.8336 50.1125V35.168Z" fill="url(#paint4_linear_3039_213552)"/>
<path d="M61.6383 36.8545L37.5059 53.5856V68.5301L61.6383 51.799V36.8545Z" fill="url(#paint5_linear_3039_213552)"/>
<path opacity="0.8" d="M59.9915 41.5879L40.8125 54.8864V56.5726L59.9832 43.274L59.9915 41.5879Z" fill="white"/>
<path opacity="0.8" d="M59.9919 44.9922L44.6387 55.6411V57.3272L59.9919 46.6783V44.9922Z" fill="white"/>
<path opacity="0.4" d="M51.3301 8.4772C51.3301 9.5712 51.8647 10.0831 52.5162 9.63141C53.1678 9.17977 53.7024 7.92519 53.7024 6.84123C53.7024 5.74724 53.1678 5.23537 52.5162 5.68702C51.8563 6.13867 51.3301 7.39325 51.3301 8.4772Z" fill="#CBB677"/>
<defs>
<linearGradient id="paint0_linear_3039_213552" x1="17.6584" y1="33.9018" x2="42.9661" y2="54.9232" gradientUnits="userSpaceOnUse">
<stop stop-color="#EEEFF0"/>
<stop offset="1" stop-color="#E7EDF3"/>
</linearGradient>
<linearGradient id="paint1_linear_3039_213552" x1="58" y1="2.16565" x2="-24.1533" y2="47.2386" gradientUnits="userSpaceOnUse">
<stop stop-color="#CBB677" stop-opacity="0.7"/>
<stop offset="1" stop-color="#CBB677" stop-opacity="0"/>
</linearGradient>
<linearGradient id="paint2_linear_3039_213552" x1="11.7978" y1="69.3581" x2="18.2446" y2="78.6536" gradientUnits="userSpaceOnUse">
<stop stop-color="#CAD0DA"/>
<stop offset="1" stop-color="white" stop-opacity="0"/>
</linearGradient>
<linearGradient id="paint3_linear_3039_213552" x1="14.6069" y1="71.0454" x2="21.0535" y2="80.341" gradientUnits="userSpaceOnUse">
<stop stop-color="#134A89"/>
<stop offset="1" stop-color="#E7EDF3"/>
</linearGradient>
<linearGradient id="paint4_linear_3039_213552" x1="44.0736" y1="45.4002" x2="50.5204" y2="54.6958" gradientUnits="userSpaceOnUse">
<stop stop-color="#CAD0DA"/>
<stop offset="1" stop-color="white" stop-opacity="0"/>
</linearGradient>
<linearGradient id="paint5_linear_3039_213552" x1="46.8807" y1="47.0882" x2="53.3274" y2="56.3837" gradientUnits="userSpaceOnUse">
<stop stop-color="#134A89"/>
<stop offset="1" stop-color="#E7EDF3"/>
</linearGradient>
</defs>
</svg>
