<svg width="20" height="20" viewBox="0 0 20 20" fill="none" xmlns="http://www.w3.org/2000/svg">
<path d="M9.17969 12.9688C8.94531 13.2031 8.51562 13.2031 8.28125 12.9688L5.78125 10.4688C5.54688 10.2344 5.54688 9.80469 5.78125 9.57031C6.01562 9.33594 6.44531 9.33594 6.67969 9.57031L8.75 11.6406L13.2812 7.07031C13.5156 6.83594 13.9453 6.83594 14.1797 7.07031C14.4141 7.30469 14.4141 7.73438 14.1797 7.96875L9.17969 12.9688ZM20 10C20 15.5469 15.5078 20 10 20C4.45312 20 0 15.5469 0 10C0 4.49219 4.45312 0 10 0C15.5078 0 20 4.49219 20 10ZM10 1.25C5.15625 1.25 1.25 5.19531 1.25 10C1.25 14.8438 5.15625 18.75 10 18.75C14.8047 18.75 18.75 14.8438 18.75 10C18.75 5.19531 14.8047 1.25 10 1.25Z" fill="#888EA5"/>
</svg>
