<svg width="20" height="21" viewBox="0 0 20 21" fill="none" xmlns="http://www.w3.org/2000/svg">
<path d="M6.5625 4.13281C6.60156 4.17188 6.67969 4.25 6.71875 4.28906C6.13281 4.28906 5.54688 4.36719 5 4.44531V3.625C5 3.03906 5.3125 2.57031 5.74219 2.17969C6.17188 1.82812 6.75781 1.51562 7.42188 1.28125C8.75 0.8125 10.5469 0.5 12.5 0.5C14.4141 0.5 16.2109 0.8125 17.5391 1.28125C18.2031 1.51562 18.7891 1.82812 19.2188 2.17969C19.6484 2.57031 20 3.03906 20 3.625V7.6875V12.1406C20 12.7656 19.6484 13.2734 19.2188 13.625C18.7891 14.0156 18.2422 14.3281 17.5781 14.6016C17.1484 14.7578 16.7188 14.875 16.25 14.9922V13.7031C16.5625 13.625 16.8359 13.5078 17.1094 13.4297C17.6953 13.1953 18.125 12.9609 18.3984 12.7266C18.6719 12.4531 18.75 12.2578 18.75 12.1406V9.5625C18.3984 9.79688 18.0078 9.99219 17.5781 10.1484C17.1484 10.3047 16.7188 10.4219 16.25 10.5391V9.25C16.5625 9.17188 16.8359 9.09375 17.1094 8.97656C17.6953 8.74219 18.125 8.50781 18.3984 8.27344C18.6719 8 18.75 7.84375 18.75 7.6875V5.46094C18.3984 5.65625 18.0078 5.85156 17.5391 6.00781C16.875 6.24219 16.0938 6.4375 15.1953 6.55469C15.1562 6.47656 15.0781 6.4375 15 6.35938C14.6094 6.00781 14.1406 5.69531 13.6719 5.46094C15.0391 5.38281 16.2109 5.14844 17.1094 4.83594C17.6953 4.60156 18.125 4.36719 18.3984 4.13281C18.6719 3.89844 18.75 3.74219 18.75 3.625C18.75 3.54688 18.6719 3.39062 18.3984 3.15625C18.125 2.92188 17.6953 2.6875 17.1094 2.45312C15.9766 2.02344 14.3359 1.75 12.5 1.75C10.625 1.75 8.98438 2.02344 7.85156 2.45312C7.26562 2.6875 6.83594 2.92188 6.5625 3.15625C6.28906 3.39062 6.21094 3.54688 6.21094 3.625C6.21094 3.74219 6.28906 3.89844 6.5625 4.13281ZM0 8.625C0 8.03906 0.3125 7.57031 0.742188 7.17969C1.17188 6.82812 1.75781 6.51562 2.42188 6.28125C3.75 5.8125 5.54688 5.5 7.5 5.5C9.41406 5.5 11.2109 5.8125 12.5391 6.28125C13.2031 6.51562 13.7891 6.82812 14.2188 7.17969C14.6484 7.57031 15 8.03906 15 8.625V17.1406C15 17.7656 14.6484 18.2734 14.2188 18.625C13.7891 19.0156 13.2422 19.3281 12.5781 19.6016C11.25 20.1094 9.45312 20.3828 7.5 20.3828C5.50781 20.3828 3.71094 20.1094 2.38281 19.6016C1.71875 19.3281 1.17188 19.0156 0.742188 18.625C0.3125 18.2734 0 17.7656 0 17.1406V8.625ZM1.5625 9.13281C1.83594 9.36719 2.26562 9.60156 2.85156 9.83594C3.98438 10.2266 5.625 10.5 7.5 10.5C9.33594 10.5 10.9766 10.2266 12.1094 9.83594C12.6953 9.60156 13.125 9.36719 13.3984 9.13281C13.6719 8.89844 13.75 8.74219 13.75 8.625C13.75 8.54688 13.6719 8.39062 13.3984 8.15625C13.125 7.92188 12.6953 7.6875 12.1094 7.45312C10.9766 7.02344 9.33594 6.75 7.5 6.75C5.625 6.75 3.98438 7.02344 2.85156 7.45312C2.26562 7.6875 1.83594 7.92188 1.5625 8.15625C1.28906 8.39062 1.25 8.54688 1.25 8.625C1.25 8.74219 1.28906 8.89844 1.5625 9.13281ZM12.5391 11.0078C11.2109 11.4766 9.41406 11.75 7.5 11.75C5.54688 11.75 3.75 11.4766 2.42188 11.0078C1.95312 10.8516 1.5625 10.6562 1.25 10.4609V12.6875C1.25 12.8438 1.28906 13 1.5625 13.2734C1.83594 13.5078 2.26562 13.7422 2.85156 13.9766C3.98438 14.4062 5.625 14.6797 7.5 14.6797C9.33594 14.6797 10.9766 14.4062 12.1094 13.9766C12.6953 13.7422 13.125 13.5078 13.3984 13.2734C13.6719 13 13.75 12.8438 13.75 12.6875V10.4609C13.3984 10.6562 13.0078 10.8516 12.5391 11.0078ZM1.5625 17.7266C1.83594 17.9609 2.26562 18.1953 2.85156 18.4297C3.98438 18.8594 5.625 19.1328 7.5 19.1328C9.33594 19.1328 10.9766 18.8594 12.1094 18.4297C12.6953 18.1953 13.125 17.9609 13.3984 17.7266C13.6719 17.4531 13.75 17.2578 13.75 17.1406V14.5625C13.3984 14.7969 13.0078 14.9922 12.5781 15.1484C11.25 15.6562 9.45312 15.9297 7.5 15.9297C5.50781 15.9297 3.71094 15.6562 2.38281 15.1484C1.95312 14.9922 1.5625 14.7969 1.21094 14.5625V17.1406C1.21094 17.2578 1.28906 17.4531 1.5625 17.7266Z" fill="#363E59"/>
</svg>
