<svg width="63" height="95" viewBox="0 0 63 95" fill="none" xmlns="http://www.w3.org/2000/svg">
<path d="M6.02082e-05 36.0665C6.02082e-05 46.9629 6.63254 52.122 14.7903 47.5856C22.9711 43.0491 29.5804 30.5294 29.5804 19.633C29.5804 8.73657 22.948 3.57745 14.7903 8.11391C6.60943 12.6504 -0.0230495 25.1701 6.02082e-05 36.0665Z" fill="url(#paint0_linear_3039_213546)"/>
<path d="M21.8875 52.0353C13.7067 56.5717 7.09733 51.4126 7.07422 40.5162C7.07422 29.6198 13.7067 17.1001 21.8644 12.5636C30.0452 8.02716 36.6546 13.1863 36.6546 24.0827C36.6777 34.9791 30.0452 47.4988 21.8875 52.0353ZM24.4296 20.8805L21.5871 22.4593V25.1056C21.3098 25.2835 21.0325 25.4614 20.7551 25.6393C20.0387 26.1063 19.3686 26.5955 18.7446 27.0847V44.2521C19.5303 44.052 20.2698 43.7629 20.9862 43.4071C21.1942 43.3181 21.3791 43.2292 21.5871 43.118V45.7643L24.4296 44.1854V41.5169C25.8162 40.5829 26.9023 39.5378 27.688 38.3814C28.7049 36.8693 29.2133 35.2014 29.2133 33.3335C29.2133 32.4218 29.0515 31.6657 28.7511 31.1097C28.4507 30.5538 27.8729 30.2869 27.041 30.3314C28.0578 28.9527 28.5662 27.5517 28.5662 26.1285C28.5662 25.1945 28.4276 24.4829 28.1271 24.016C27.8498 23.5267 27.4569 23.2154 26.9485 23.1265C26.4401 23.0375 25.8162 23.082 25.1229 23.3266C24.9149 23.3933 24.6838 23.4823 24.4527 23.5712L24.4296 20.8805Z" fill="url(#paint1_linear_3039_213546)"/>
<path opacity="0.8" d="M23.2254 31.4182L21.7695 32.2188V28.3717C22.0006 28.2161 22.2548 28.0382 22.5553 27.8825C22.8557 27.7046 23.133 27.5489 23.3872 27.3933C24.1729 26.9485 24.7738 26.7706 25.1898 26.8373C25.6057 26.904 25.7906 27.2821 25.7906 27.9937C25.7906 28.683 25.5826 29.3057 25.1898 29.8616C24.7969 30.3953 24.1498 30.9068 23.2254 31.4182Z" fill="#CBB677"/>
<path opacity="0.8" d="M21.7695 39.8039V35.2229L23.6414 34.1778C24.4965 33.7108 25.1435 33.5106 25.6057 33.6218C26.0679 33.7108 26.299 34.1555 26.299 34.9783C26.299 35.8901 26.0217 36.6906 25.4671 37.3355C24.9124 37.9804 24.196 38.5586 23.2948 39.0478C22.9943 39.2257 22.717 39.3591 22.4628 39.4926C22.2317 39.6037 22.0006 39.7149 21.7695 39.8039Z" fill="#CBB677"/>
<path d="M59.6145 35.9727L38.8965 47.9351V86.3169L59.6145 74.3544V35.9727Z" fill="url(#paint2_linear_3039_213546)"/>
<path opacity="0.8" d="M56.3306 60.3701L43.9863 67.4967V69.0111L56.3306 61.8845V60.3701Z" fill="white"/>
<path opacity="0.8" d="M55.048 64.1118L45.2617 69.7622V71.2766L55.048 65.6262V64.1118Z" fill="white"/>
<path d="M51.3105 75.05L63.0005 68.3022V71.7793L51.3105 78.5271V75.05Z" fill="#98ACCC"/>
<path opacity="0.8" d="M44.7637 51.7673L47.9834 54.3125L50.1468 51.5382L52.972 53.9816L54.0919 53.1671L49.9304 49.6675L47.8179 52.4418L45.4891 50.711L44.7637 51.7673Z" fill="white"/>
<path d="M42.3457 51.7019C42.3457 53.14 43.1856 53.8145 44.2164 53.2163C45.2472 52.6182 46.0872 50.9766 46.0872 49.5385C46.0872 48.1005 45.2472 47.426 44.2164 48.0241C43.1856 48.6222 42.3457 50.2639 42.3457 51.7019Z" fill="white"/>
<path d="M51.9922 54.4768C51.9922 55.9149 52.8321 56.5894 53.8629 55.9912C54.8937 55.3931 55.7336 53.7515 55.7336 52.3134C55.7336 50.8754 54.8937 50.2009 53.8629 50.799C52.8321 51.3971 51.9922 53.0388 51.9922 54.4768Z" fill="white"/>
<path d="M2.29102 73.2686L30.2521 57.1206V71.6791L2.29102 87.8272V73.2686Z" fill="url(#paint3_linear_3039_213546)"/>
<path opacity="0.8" d="M23.0969 64.7607L14.6797 69.6196V71.3717L23.0969 66.5128V64.7607Z" fill="white"/>
<path opacity="0.8" d="M23.0823 68.2822L5.16406 78.6141V80.3842L23.0823 70.0524V68.2822Z" fill="white"/>
<path d="M24.5605 65.2854C24.5605 66.4775 25.265 67.0555 26.1501 66.5498C27.0351 66.044 27.7396 64.6532 27.7396 63.4611C27.7396 62.2689 27.0351 61.6909 26.1501 62.1967C25.265 62.7024 24.5605 64.0932 24.5605 65.2854Z" fill="white"/>
<defs>
<linearGradient id="paint0_linear_3039_213546" x1="11.8183" y1="11.5586" x2="25.8342" y2="90.4302" gradientUnits="userSpaceOnUse">
<stop stop-color="#F0E9D3"/>
<stop offset="1" stop-color="white" stop-opacity="0"/>
</linearGradient>
<linearGradient id="paint1_linear_3039_213546" x1="21.7638" y1="29.615" x2="21.7638" y2="62.1307" gradientUnits="userSpaceOnUse">
<stop stop-color="#CBB677"/>
<stop offset="1" stop-color="#CBB677" stop-opacity="0"/>
</linearGradient>
<linearGradient id="paint2_linear_3039_213546" x1="36.6818" y1="39.3462" x2="55.0746" y2="71.2116" gradientUnits="userSpaceOnUse">
<stop stop-color="#134A89"/>
<stop offset="1" stop-color="#E7EDF3" stop-opacity="0.8"/>
</linearGradient>
<linearGradient id="paint3_linear_3039_213546" x1="13.1109" y1="67.0155" x2="19.4179" y2="77.9426" gradientUnits="userSpaceOnUse">
<stop stop-color="#134A89"/>
<stop offset="1" stop-color="#E7EDF3" stop-opacity="0.8"/>
</linearGradient>
</defs>
</svg>
