<svg width="28" height="28" viewBox="0 0 28 28" fill="none" xmlns="http://www.w3.org/2000/svg">
<rect width="28" height="28" rx="10" fill="#CBB677"/>
<path d="M14 6.75C10.1172 6.75 7 9.89453 7 13.75C7 17.6328 10.1172 20.75 14 20.75C17.8555 20.75 21 17.6328 21 13.75C21 9.89453 17.8555 6.75 14 6.75ZM14 19.875C12.6875 19.875 11.4844 19.4922 10.5 18.8086C10.6094 17.4414 11.7305 16.375 13.125 16.375H14.875C16.2422 16.375 17.3633 17.4414 17.4727 18.8086C16.4883 19.4922 15.2852 19.875 14 19.875ZM18.2383 18.1523C17.8555 16.6484 16.4883 15.5 14.875 15.5H13.125C11.4844 15.5 10.1172 16.6484 9.73438 18.1523C8.58594 17.0312 7.875 15.4727 7.875 13.75C7.875 10.3867 10.6094 7.625 14 7.625C17.3633 7.625 20.125 10.3867 20.125 13.75C20.125 15.4727 19.3867 17.0312 18.2383 18.1523ZM14 10.25C12.7695 10.25 11.8125 11.2344 11.8125 12.4375C11.8125 13.668 12.7695 14.625 14 14.625C15.2031 14.625 16.1875 13.668 16.1875 12.4375C16.1875 11.2344 15.2031 10.25 14 10.25ZM14 13.75C13.2617 13.75 12.6875 13.1758 12.6875 12.4375C12.6875 11.7266 13.2617 11.125 14 11.125C14.7109 11.125 15.3125 11.7266 15.3125 12.4375C15.3125 13.1758 14.7109 13.75 14 13.75Z" fill="white"/>
</svg>
