<svg width="15" height="21" viewBox="0 0 15 21" fill="none" xmlns="http://www.w3.org/2000/svg">
<path d="M14.2578 5.4209L10.0781 1.24121C9.60938 0.772461 8.98438 0.499023 8.32031 0.499023H2.5C1.09375 0.499023 0 1.63184 0 2.99902V17.999C0 19.4053 1.09375 20.499 2.5 20.499H12.5C13.8672 20.499 15 19.4053 15 17.999V7.17871C15 6.51465 14.7266 5.88965 14.2578 5.4209ZM8.75 1.86621C8.90625 1.90527 9.0625 1.9834 9.21875 2.13965L13.3594 6.28027C13.5156 6.43652 13.5938 6.59277 13.6328 6.74902H9.375C9.02344 6.74902 8.75 6.47559 8.75 6.12402V1.86621ZM10.625 19.249H4.375V18.624C4.375 17.6084 5.19531 16.749 6.25 16.749H8.75C9.76562 16.749 10.625 17.6084 10.625 18.624V19.249ZM13.75 17.999C13.75 18.7021 13.1641 19.249 12.5 19.249H11.875V18.624C11.875 16.9053 10.4688 15.499 8.75 15.499H6.25C4.49219 15.499 3.125 16.9053 3.125 18.624V19.249H2.5C1.79688 19.249 1.25 18.7021 1.25 17.999V2.99902C1.25 2.33496 1.79688 1.74902 2.5 1.74902H7.5V6.12402C7.5 7.17871 8.32031 7.99902 9.375 7.99902H13.75V17.999ZM7.5 9.24902C6.09375 9.24902 5 10.3818 5 11.749C5 13.1553 6.09375 14.249 7.5 14.249C8.86719 14.249 10 13.1553 10 11.749C10 10.3818 8.86719 9.24902 7.5 9.24902ZM7.5 12.999C6.79688 12.999 6.25 12.4521 6.25 11.749C6.25 11.085 6.79688 10.499 7.5 10.499C8.16406 10.499 8.75 11.085 8.75 11.749C8.75 12.4521 8.16406 12.999 7.5 12.999Z" fill="#888EA5"/>
</svg>
