<svg width="63" height="95" viewBox="0 0 63 95" fill="none" xmlns="http://www.w3.org/2000/svg">
<path d="M38.7068 1.74902L1.14453 21.8068V90.0712L38.7068 70.0322V1.74902Z" fill="url(#paint0_linear_3039_213558)"/>
<path d="M43.5779 5.84961L6.01562 25.8929V94.1718L22.2329 85.5334L24.7764 87.453L27.3403 82.8045L43.5779 74.1285V5.84961Z" fill="url(#paint1_linear_3039_213558)"/>
<path d="M19.4727 41.1325C19.4727 42.6366 19.7522 43.9563 20.2741 44.9461C20.7959 45.9359 21.5508 46.5666 22.4547 46.7801L25.4274 37.5518L19.4727 41.1325Z" fill="#98ACCC"/>
<path d="M22.4434 46.7802C23.5803 47.0422 24.8942 46.6249 26.1988 45.606C27.4942 44.5774 28.7056 42.9957 29.6282 41.1034L25.4161 37.5615L22.4434 46.7802Z" fill="#98ACCC"/>
<path d="M19.4727 41.1323C19.4727 39.7155 19.7149 38.1823 20.1716 36.6588C20.6282 35.1353 21.2991 33.67 22.1099 32.3988C22.9206 31.1276 23.8618 30.0796 24.831 29.3518C25.8095 28.6241 26.7879 28.2456 27.6919 28.2456C28.5958 28.2456 29.3972 28.6144 30.0123 29.3324C30.6366 30.0505 31.056 31.0888 31.2517 32.36C31.4474 33.6312 31.3914 35.0868 31.1119 36.6103C30.8323 38.1338 30.3198 39.667 29.6209 41.0838L25.4088 37.5419L19.4727 41.1323Z" fill="url(#paint2_linear_3039_213558)"/>
<path d="M39.073 51.9521L12.8105 67.7353V70.6478L39.073 54.8646V51.9521Z" fill="#98ACCC"/>
<path d="M39.073 45.9102L12.8105 61.6933V64.6058L39.073 48.8227V45.9102Z" fill="#98ACCC"/>
<path d="M39.073 57.6489L11.8027 74.0531V76.9656L39.073 60.5614V57.6489Z" fill="#98ACCC"/>
<path d="M39.0747 63.3452L20.8945 74.2671V77.1796L39.0747 66.2577V63.3452Z" fill="#98ACCC"/>
<path d="M57.2912 9.31934L52.0181 22.1717C51.2973 23.9371 51.4111 25.7026 52.2836 26.1263C53.1562 26.55 54.446 25.4436 55.1668 23.6782L55.2237 23.5134V37.7781C55.2237 39.4023 56.1341 40.0614 57.2722 39.2611C58.4103 38.4372 59.3207 36.4835 59.3207 34.8593V20.5946L59.3776 20.6652C60.0984 21.3949 61.4072 20.6416 62.2608 18.9704C63.1333 17.2991 63.2471 15.3689 62.5263 14.6392L57.2912 9.31934Z" fill="url(#paint3_linear_3039_213558)"/>
<defs>
<linearGradient id="paint0_linear_3039_213558" x1="-29.0601" y1="-52.9836" x2="11.7375" y2="120.374" gradientUnits="userSpaceOnUse">
<stop stop-color="#E2E4ED"/>
<stop offset="1" stop-color="#E7EDF3" stop-opacity="0.8"/>
</linearGradient>
<linearGradient id="paint1_linear_3039_213558" x1="9.73835" y1="20.0442" x2="56.331" y2="61.6672" gradientUnits="userSpaceOnUse">
<stop stop-color="white"/>
<stop offset="1" stop-color="#E7EDF3"/>
</linearGradient>
<linearGradient id="paint2_linear_3039_213558" x1="31.565" y1="27.7598" x2="33.5486" y2="42.0141" gradientUnits="userSpaceOnUse">
<stop stop-color="#CBB677"/>
<stop offset="1" stop-color="#EEE9D9"/>
</linearGradient>
<linearGradient id="paint3_linear_3039_213558" x1="59.8755" y1="5.5341" x2="76.4279" y2="25.0899" gradientUnits="userSpaceOnUse">
<stop stop-color="#CBB677"/>
<stop offset="1" stop-color="#EEE9D9"/>
</linearGradient>
</defs>
</svg>
