<svg width="24" height="21" viewBox="0 0 24 21" fill="none" xmlns="http://www.w3.org/2000/svg">
<path d="M22.5469 13.5469C22.1562 13.1953 21.6875 13.0391 21.1797 13.0391C20.6719 13.0391 20.2031 13.1953 19.8125 13.5078L17.4297 15.4219C17.3516 15.5 17.2344 15.5 17.1562 15.5H15.5156C15.7109 15.1484 15.7891 14.7188 15.7109 14.25C15.5547 13.1562 14.5391 12.375 13.4453 12.375H7.82031C7 12.375 6.25781 12.6484 5.55469 13.1562L4.07031 14.25H1.375C1.02344 14.25 0.75 14.5625 0.75 14.875C0.75 15.2266 1.02344 15.5 1.33594 15.5H4.46094L6.25781 14.0938C6.72656 13.7812 7.23438 13.625 7.78125 13.625H13.5234C14.0312 13.625 14.4609 14.0156 14.4609 14.5625C14.4609 15.0703 14.0312 15.5 13.5234 15.5H10.0859C9.73438 15.5 9.46094 15.7734 9.46094 16.125C9.46094 16.4375 9.73438 16.75 10.0859 16.75H17.1172C17.4688 16.75 17.8594 16.5938 18.1328 16.3594L20.5547 14.4453C20.7109 14.3281 20.9453 14.25 21.1406 14.25C21.3359 14.25 21.5312 14.3281 21.6484 14.4453C22.0781 14.7969 22.0391 15.4219 21.6484 15.7344L17.7031 18.8594C17.3906 19.0938 17.0391 19.25 16.6484 19.25H1.375C1.02344 19.25 0.75 19.5234 0.75 19.875C0.75 20.1875 1.02344 20.5 1.33594 20.5H16.6484C17.3125 20.5 17.9375 20.3047 18.4844 19.875L22.4297 16.7109C22.8984 16.3594 23.1719 15.7734 23.1719 15.1484C23.25 14.5625 22.9766 13.9766 22.5469 13.5469ZM11.4922 7.96094C11.2188 7.92188 10.9844 7.88281 10.0078 7.53125C9.65625 7.41406 9.30469 7.60938 9.1875 7.92188C9.10938 8.23438 9.26562 8.58594 9.57812 8.70312C10.75 9.09375 11.0234 9.17188 11.3359 9.21094V9.875C11.3359 10.2266 11.6484 10.5 12 10.5C12.3125 10.5 12.5859 10.2266 12.5859 9.875V9.25C13.7578 9.09375 14.5781 8.46875 14.7734 7.53125C15.0859 5.69531 13.3281 5.22656 12.1562 4.91406L11.8438 4.83594C10.5156 4.44531 10.3594 4.21094 10.4375 3.74219C10.5547 3.07812 11.5312 2.92188 12.4297 3.07812C12.7031 3.11719 13.0156 3.19531 13.4453 3.3125C13.7578 3.42969 14.1094 3.23438 14.2266 2.92188C14.3438 2.60938 14.1484 2.25781 13.8359 2.14062C13.3281 1.98438 12.9375 1.86719 12.625 1.82812V1.125C12.625 0.8125 12.3125 0.5 12 0.5C11.6484 0.5 11.3359 0.8125 11.3359 1.125V1.78906C10.2031 1.94531 9.38281 2.57031 9.1875 3.50781C8.875 5.30469 10.6719 5.8125 11.5312 6.04688L11.8047 6.125C13.2891 6.51562 13.6406 6.75 13.5234 7.29688C13.4062 7.96094 12.4297 8.11719 11.4922 7.96094Z" fill="#363E59"/>
</svg>
