<svg width="31" height="27" viewBox="0 0 31 27" fill="none" xmlns="http://www.w3.org/2000/svg">
<path d="M29.9453 12.6406C30.3008 12.9453 30.3008 13.4531 29.9961 13.8086C29.7422 14.1641 29.2344 14.1641 28.8789 13.8594L27 12.1836V22.1875C27 24.4727 25.1719 26.25 22.9375 26.25H8.3125C6.02734 26.25 4.25 24.4727 4.25 22.1875V12.1836L2.32031 13.8594C1.96484 14.1641 1.45703 14.1641 1.20312 13.8086C0.898438 13.4531 0.898438 12.9453 1.25391 12.6406L15.0664 0.503906C15.3711 0.199219 15.8281 0.199219 16.1328 0.503906L29.9453 12.6406ZM8.3125 24.625H11.5625V16.5C11.5625 15.6367 12.2734 14.875 13.1875 14.875H18.0625C18.9258 14.875 19.6875 15.6367 19.6875 16.5V24.625H22.9375C24.2578 24.625 25.375 23.5586 25.375 22.1875V10.7617L15.625 2.17969L5.875 10.7617V22.1875C5.875 23.5586 6.94141 24.625 8.3125 24.625ZM13.1875 24.625H18.0625V16.5H13.1875V24.625Z" fill="#888EA5"/>
</svg>
