<svg width="14" height="15" viewBox="0 0 14 15" fill="none" xmlns="http://www.w3.org/2000/svg">
<path d="M7 0.75C3.11719 0.75 0 3.89453 0 7.75C0 11.6328 3.11719 14.75 7 14.75C10.8555 14.75 14 11.6328 14 7.75C14 3.89453 10.8555 0.75 7 0.75ZM7 13.875C3.60938 13.875 0.875 11.1406 0.875 7.75C0.875 4.38672 3.60938 1.625 7 1.625C10.3633 1.625 13.125 4.38672 13.125 7.75C13.125 11.1406 10.3633 13.875 7 13.875ZM7 5.78125C7.35547 5.78125 7.65625 5.50781 7.65625 5.125C7.65625 4.76953 7.35547 4.46875 7 4.46875C6.61719 4.46875 6.34375 4.76953 6.34375 5.125C6.34375 5.50781 6.61719 5.78125 7 5.78125ZM8.3125 10.375H7.4375V7.3125C7.4375 7.09375 7.21875 6.875 7 6.875H6.125C5.87891 6.875 5.6875 7.09375 5.6875 7.3125C5.6875 7.55859 5.87891 7.75 6.125 7.75H6.5625V10.375H5.6875C5.44141 10.375 5.25 10.5938 5.25 10.8125C5.25 11.0586 5.44141 11.25 5.6875 11.25H8.3125C8.53125 11.25 8.75 11.0586 8.75 10.8125C8.75 10.5938 8.53125 10.375 8.3125 10.375Z" fill="#888EA5"/>
</svg>
