<svg width="29" height="29" viewBox="0 0 29 29" fill="none" xmlns="http://www.w3.org/2000/svg">
<path d="M15 7.01172C11 7.01172 7.8125 10.2617 7.8125 14.1992C7.8125 18.1992 11 21.3867 15 21.3867C18.9375 21.3867 22.1875 18.1992 22.1875 14.1992C22.1875 10.2617 18.9375 7.01172 15 7.01172ZM15 18.8867C12.4375 18.8867 10.3125 16.8242 10.3125 14.1992C10.3125 11.6367 12.375 9.57422 15 9.57422C17.5625 9.57422 19.625 11.6367 19.625 14.1992C19.625 16.8242 17.5625 18.8867 15 18.8867ZM24.125 6.76172C24.125 7.69922 23.375 8.44922 22.4375 8.44922C21.5 8.44922 20.75 7.69922 20.75 6.76172C20.75 5.82422 21.5 5.07422 22.4375 5.07422C23.375 5.07422 24.125 5.82422 24.125 6.76172ZM28.875 8.44922C28.75 6.19922 28.25 4.19922 26.625 2.57422C25 0.949219 23 0.449219 20.75 0.324219C18.4375 0.199219 11.5 0.199219 9.1875 0.324219C6.9375 0.449219 5 0.949219 3.3125 2.57422C1.6875 4.19922 1.1875 6.19922 1.0625 8.44922C0.9375 10.7617 0.9375 17.6992 1.0625 20.0117C1.1875 22.2617 1.6875 24.1992 3.3125 25.8867C5 27.5117 6.9375 28.0117 9.1875 28.1367C11.5 28.2617 18.4375 28.2617 20.75 28.1367C23 28.0117 25 27.5117 26.625 25.8867C28.25 24.1992 28.75 22.2617 28.875 20.0117C29 17.6992 29 10.7617 28.875 8.44922ZM25.875 22.4492C25.4375 23.6992 24.4375 24.6367 23.25 25.1367C21.375 25.8867 17 25.6992 15 25.6992C12.9375 25.6992 8.5625 25.8867 6.75 25.1367C5.5 24.6367 4.5625 23.6992 4.0625 22.4492C3.3125 20.6367 3.5 16.2617 3.5 14.1992C3.5 12.1992 3.3125 7.82422 4.0625 5.94922C4.5625 4.76172 5.5 3.82422 6.75 3.32422C8.5625 2.57422 12.9375 2.76172 15 2.76172C17 2.76172 21.375 2.57422 23.25 3.32422C24.4375 3.76172 25.375 4.76172 25.875 5.94922C26.625 7.82422 26.4375 12.1992 26.4375 14.1992C26.4375 16.2617 26.625 20.6367 25.875 22.4492Z" fill="#888EA5"/>
</svg>
