<svg width="184" height="256" viewBox="0 0 184 256" fill="none" xmlns="http://www.w3.org/2000/svg">
<path d="M50.1562 0L154.512 57.2058L154.564 248.082L50.2082 190.928L50.1562 0Z" fill="url(#paint0_linear_3039_213391)"/>
<path d="M41.752 7.91846L146.107 65.1242L146.159 256L41.804 198.846L41.752 7.91846Z" fill="url(#paint1_linear_3039_213391)"/>
<path opacity="0.64" d="M55.2246 119.049L133.604 162.44L133.811 231.303L55.4318 187.912L55.2246 119.049Z" fill="url(#paint2_linear_3039_213391)"/>
<path opacity="0.32" d="M56.3457 101.089L125.951 138.948V145.991L56.3457 108.133V101.089Z" fill="white"/>
<path opacity="0.2" d="M41.752 7.91846L146.055 64.8832L146.159 97.7217L41.8039 40.8085L41.752 7.91846Z" fill="url(#paint3_linear_3039_213391)"/>
<path opacity="0.2" d="M64.2044 36.9562C64.2044 44.3988 59.9383 48.0426 54.6992 45.019C49.4601 41.9954 45.1191 33.545 45.1191 26.0248C45.1191 18.5822 49.3852 14.9384 54.6243 17.962C59.9383 20.9855 64.2044 29.5135 64.2044 36.9562Z" fill="white"/>
<path d="M95.1618 117.024L95.0312 81.8242L183.869 129.935L184 165.135L95.1618 117.024Z" fill="url(#paint4_linear_3039_213391)"/>
<path d="M21.1182 147.214C24.1495 148.914 26.5745 153.112 26.5745 156.561V171.807L36.78 177.606C39.8113 179.305 42.2363 183.504 42.2363 187.003C42.2363 190.452 39.8113 191.852 36.78 190.152L26.5745 184.354V199.6C26.5745 203.049 24.1495 204.448 21.1182 202.749C18.0869 201.049 15.6618 196.85 15.6618 193.351V178.106L5.45639 172.307C2.42508 170.608 0 166.409 0 162.96C0 159.511 2.42508 158.111 5.45639 159.811L15.6618 165.609V150.363C15.6618 146.914 18.0869 145.514 21.1182 147.214Z" fill="url(#paint5_linear_3039_213391)"/>
<path opacity="0.32" d="M56.7559 73.9058L87.1132 90.4849V96.3414L56.7559 79.7623V73.9058Z" fill="white"/>
<path opacity="0.32" d="M56.7559 85.7832L87.1132 102.362V108.219L56.7559 91.6397V85.7832Z" fill="white"/>
<defs>
<linearGradient id="paint0_linear_3039_213391" x1="198.331" y1="14.5219" x2="-39.3683" y2="125.347" gradientUnits="userSpaceOnUse">
<stop stop-color="#E2E8F1"/>
<stop offset="1" stop-color="white" stop-opacity="0"/>
</linearGradient>
<linearGradient id="paint1_linear_3039_213391" x1="145.489" y1="32.1183" x2="-46.1337" y2="162.822" gradientUnits="userSpaceOnUse">
<stop stop-color="#134A89"/>
<stop offset="1" stop-color="white" stop-opacity="0"/>
</linearGradient>
<linearGradient id="paint2_linear_3039_213391" x1="69.0461" y1="120.566" x2="116.17" y2="220.504" gradientUnits="userSpaceOnUse">
<stop stop-color="white"/>
<stop offset="1" stop-color="white" stop-opacity="0"/>
</linearGradient>
<linearGradient id="paint3_linear_3039_213391" x1="77.1332" y1="7.82376" x2="109.308" y2="95.4342" gradientUnits="userSpaceOnUse">
<stop stop-color="white"/>
<stop offset="1" stop-color="white" stop-opacity="0"/>
</linearGradient>
<linearGradient id="paint4_linear_3039_213391" x1="169.973" y1="93.7441" x2="126.837" y2="181.098" gradientUnits="userSpaceOnUse">
<stop stop-color="#CBB677"/>
<stop offset="1" stop-color="#CBB677" stop-opacity="0"/>
</linearGradient>
<linearGradient id="paint5_linear_3039_213391" x1="37.6167" y1="146.492" x2="0.553913" y2="204.004" gradientUnits="userSpaceOnUse">
<stop stop-color="#CBB677"/>
<stop offset="1" stop-color="#CBB677" stop-opacity="0"/>
</linearGradient>
</defs>
</svg>
