<svg width="22" height="22" viewBox="0 0 22 22" fill="none" xmlns="http://www.w3.org/2000/svg">
<path d="M13.75 8.78418V12.1123C13.75 12.2061 13.6562 12.2529 13.5625 12.2529H13.0469C13 12.2529 12.9531 12.2061 12.9062 12.2061L11.4062 10.1436V12.1123C11.4062 12.2061 11.3125 12.2529 11.2656 12.2529H10.7031C10.6094 12.2529 10.5625 12.2061 10.5625 12.1123V8.78418C10.5625 8.69043 10.6094 8.64355 10.7031 8.64355H11.2656C11.3125 8.64355 11.3594 8.64355 11.3594 8.69043L12.9062 10.7529V8.78418C12.9062 8.69043 12.9531 8.64355 13.0469 8.64355H13.5625C13.6562 8.59668 13.75 8.69043 13.75 8.78418ZM9.90625 8.59668H9.34375C9.25 8.59668 9.20312 8.69043 9.20312 8.78418V12.1123C9.20312 12.2061 9.25 12.2529 9.34375 12.2529H9.90625C9.95312 12.2529 10.0469 12.2061 10.0469 12.1123V8.78418C10.0469 8.69043 9.95312 8.59668 9.90625 8.59668ZM8.59375 11.4092H7.14062V8.78418C7.14062 8.69043 7.09375 8.59668 7 8.59668H6.4375C6.39062 8.59668 6.29688 8.69043 6.29688 8.78418V12.1123C6.29688 12.1592 6.34375 12.1592 6.34375 12.2061C6.39062 12.2061 6.39062 12.2529 6.4375 12.2529H8.59375C8.6875 12.2529 8.73438 12.1592 8.73438 12.1123V11.5498C8.73438 11.5029 8.6875 11.4092 8.59375 11.4092ZM16.5625 8.59668H14.4062C14.3125 8.59668 14.2656 8.69043 14.2656 8.78418V12.1123C14.2656 12.1592 14.3125 12.2529 14.4062 12.2529H16.5625C16.6094 12.2529 16.7031 12.2061 16.7031 12.1123V11.5498C16.7031 11.5029 16.6094 11.4092 16.5625 11.4092H15.1094V10.8467H16.5625C16.6094 10.8467 16.7031 10.7998 16.7031 10.7061V10.1436C16.7031 10.0967 16.6094 10.0029 16.5625 10.0029H15.1094V9.44043H16.5625C16.6094 9.44043 16.7031 9.39355 16.7031 9.2998V8.78418C16.7031 8.69043 16.6094 8.59668 16.5625 8.59668ZM22 4.51855V17.8779C21.9531 19.9873 20.2656 21.7217 18.1562 21.6748H4.79688C2.6875 21.6748 0.953125 19.9873 1 17.8779V4.47168C1 2.40918 2.6875 0.674805 4.79688 0.674805H18.2031C20.2656 0.72168 22 2.40918 22 4.51855ZM19.0938 10.2842C19.0938 6.8623 15.6719 4.0498 11.4531 4.0498C7.23438 4.0498 3.8125 6.8623 3.8125 10.2842C3.8125 13.3311 6.53125 15.9092 10.1875 16.3779C11.0781 16.5654 10.9844 16.8936 10.7969 18.1123C10.75 18.2998 10.6094 18.8623 11.4531 18.5342C12.25 18.2061 15.8594 15.9561 17.4531 14.0811C18.5781 12.8623 19.0938 11.6436 19.0938 10.2842Z" fill="#52B495"/>
</svg>
