<svg width="29" height="29" viewBox="0 0 29 29" fill="none" xmlns="http://www.w3.org/2000/svg">
<path d="M18 10.8125V15.25C18 15.375 17.875 15.4375 17.75 15.4375H17.0625C17 15.4375 16.9375 15.375 16.875 15.375L14.875 12.625V15.25C14.875 15.375 14.75 15.4375 14.6875 15.4375H13.9375C13.8125 15.4375 13.75 15.375 13.75 15.25V10.8125C13.75 10.6875 13.8125 10.625 13.9375 10.625H14.6875C14.75 10.625 14.8125 10.625 14.8125 10.6875L16.875 13.4375V10.8125C16.875 10.6875 16.9375 10.625 17.0625 10.625H17.75C17.875 10.5625 18 10.6875 18 10.8125ZM12.875 10.5625H12.125C12 10.5625 11.9375 10.6875 11.9375 10.8125V15.25C11.9375 15.375 12 15.4375 12.125 15.4375H12.875C12.9375 15.4375 13.0625 15.375 13.0625 15.25V10.8125C13.0625 10.6875 12.9375 10.5625 12.875 10.5625ZM11.125 14.3125H9.1875V10.8125C9.1875 10.6875 9.125 10.5625 9 10.5625H8.25C8.1875 10.5625 8.0625 10.6875 8.0625 10.8125V15.25C8.0625 15.3125 8.125 15.3125 8.125 15.375C8.1875 15.375 8.1875 15.4375 8.25 15.4375H11.125C11.25 15.4375 11.3125 15.3125 11.3125 15.25V14.5C11.3125 14.4375 11.25 14.3125 11.125 14.3125ZM21.75 10.5625H18.875C18.75 10.5625 18.6875 10.6875 18.6875 10.8125V15.25C18.6875 15.3125 18.75 15.4375 18.875 15.4375H21.75C21.8125 15.4375 21.9375 15.375 21.9375 15.25V14.5C21.9375 14.4375 21.8125 14.3125 21.75 14.3125H19.8125V13.5625H21.75C21.8125 13.5625 21.9375 13.5 21.9375 13.375V12.625C21.9375 12.5625 21.8125 12.4375 21.75 12.4375H19.8125V11.6875H21.75C21.8125 11.6875 21.9375 11.625 21.9375 11.5V10.8125C21.9375 10.6875 21.8125 10.5625 21.75 10.5625ZM29 5.125V22.9375C28.9375 25.75 26.6875 28.0625 23.875 28H6.0625C3.25 28 0.9375 25.75 1 22.9375V5.0625C1 2.3125 3.25 0 6.0625 0H23.9375C26.6875 0.0625 29 2.3125 29 5.125ZM25.125 12.8125C25.125 8.25 20.5625 4.5 14.9375 4.5C9.3125 4.5 4.75 8.25 4.75 12.8125C4.75 16.875 8.375 20.3125 13.25 20.9375C14.4375 21.1875 14.3125 21.625 14.0625 23.25C14 23.5 13.8125 24.25 14.9375 23.8125C16 23.375 20.8125 20.375 22.9375 17.875C24.4375 16.25 25.125 14.625 25.125 12.8125Z" fill="#888EA5"/>
</svg>
