<svg width="18" height="21" viewBox="0 0 18 21" fill="none" xmlns="http://www.w3.org/2000/svg">
<path d="M9.375 15.8125C9.375 16.1641 9.0625 16.4375 8.75 16.4375C8.39844 16.4375 8.125 16.1641 8.125 15.8125V12.6875C8.125 12.375 8.39844 12.0625 8.75 12.0625C9.0625 12.0625 9.375 12.375 9.375 12.6875V15.8125ZM8.75 0.5C11.4844 0.5 13.75 2.76562 13.75 5.5V8H14.375C16.0938 8 17.5 9.40625 17.5 11.125V17.375C17.5 19.1328 16.0938 20.5 14.375 20.5H3.125C1.36719 20.5 0 19.1328 0 17.375V11.125C0 9.40625 1.36719 8 3.125 8H3.75V5.5C3.75 2.76562 5.97656 0.5 8.75 0.5ZM8.75 1.75C6.64062 1.75 5 3.42969 5 5.5V8H12.5V5.5C12.5 3.42969 10.8203 1.75 8.75 1.75ZM3.125 9.25C2.07031 9.25 1.25 10.1094 1.25 11.125V17.375C1.25 18.4297 2.07031 19.25 3.125 19.25H14.375C15.3906 19.25 16.25 18.4297 16.25 17.375V11.125C16.25 10.1094 15.3906 9.25 14.375 9.25H3.125Z" fill="#888EA5"/>
</svg>
