<svg width="264" height="294" viewBox="0 0 264 294" fill="none" xmlns="http://www.w3.org/2000/svg">
<path opacity="0.8" d="M153.097 114.65C123.957 95.8044 99.8562 113.441 95.5927 154.059C94.8528 161.121 99.68 170.408 105.529 174.192L200.629 235.686C206.478 239.47 211.305 236.427 210.6 228.428C206.337 182.269 182.236 133.457 153.097 114.65Z" fill="url(#paint0_linear_2449_179403)"/>
<path opacity="0.8" d="M175.728 71.2933C175.728 97.5522 162.008 109.969 145.089 99.0131C128.203 88.0932 114.483 57.963 114.483 31.7041C114.483 5.44519 128.203 -6.97209 145.122 3.98433C162.041 14.9042 175.728 45.0709 175.728 71.2933Z" fill="url(#paint1_linear_2449_179403)"/>
<path d="M162.53 82.2494C162.53 108.508 148.81 120.926 131.891 109.969C115.005 99.0492 101.285 68.919 101.285 42.6601C101.285 16.4012 115.005 3.98397 131.924 14.9404C148.843 25.8603 162.53 56.027 162.53 82.2494Z" fill="url(#paint2_linear_2449_179403)"/>
<path d="M145.319 120.709C118.044 103.069 95.4858 119.577 91.4951 157.596C90.8026 164.206 95.3209 172.898 100.796 176.441L189.809 233.998C195.284 237.541 199.802 234.692 199.143 227.205C195.152 184.001 172.594 138.312 145.319 120.709Z" fill="url(#paint3_linear_2449_179403)"/>
<path opacity="0.8" d="M12.6504 5.79785L67.5086 40.8638V171.679L12.6504 136.613V5.79785Z" fill="url(#paint4_linear_2449_179403)"/>
<path d="M58.3612 49.728L3.47363 14.6621V145.477L58.3318 180.543L58.3612 49.728ZM21.359 34.4679L39.6842 46.1565V51.3514L21.359 39.8251V34.4679Z" fill="url(#paint5_linear_2449_179403)"/>
<path d="M8.78613 97.4233L52.8545 125.573V129.989L8.78613 101.839V97.4233Z" fill="white"/>
<path d="M11.8545 108.039L49.7363 132.26V136.676L11.8252 112.454L11.8545 108.039Z" fill="white"/>
<path d="M43.1719 86.4457C43.1719 76.0883 37.689 64.1724 30.9453 59.8541C24.2016 55.5358 18.7188 60.4385 18.7188 70.7959C18.7188 81.1534 24.2016 93.0693 30.9453 97.3876C37.689 101.706 43.1719 96.8032 43.1719 86.4457Z" fill="url(#paint6_linear_2449_179403)"/>
<path d="M131.96 214.66L12.709 138.426L12.7491 207.25L121.462 276.739L132.001 294L131.96 214.66Z" fill="url(#paint7_linear_2449_179403)"/>
<path d="M0 165.268V146.586L44.9998 175.34V194.022L0 165.268Z" fill="#98ACCC"/>
<path opacity="0.6" d="M101.295 211.816L75.1689 195.132V201.167L101.295 217.851V211.816Z" fill="white"/>
<path opacity="0.6" d="M101.297 223.935L50.9277 191.764V197.798L101.297 229.969V223.935Z" fill="white"/>
<path opacity="0.6" d="M101.309 236.001L40.3213 196.997V203.031L101.35 242.036L101.309 236.001Z" fill="white"/>
<path d="M107.745 222.246C107.745 227.926 110.79 234.449 114.517 236.845C118.243 239.241 121.289 236.579 121.289 230.899C121.289 225.219 118.243 218.696 114.517 216.3C110.75 213.904 107.704 216.566 107.745 222.246Z" fill="white"/>
<path d="M263.981 106.482L206.289 69.6011L206.308 102.897L258.902 136.514L264 144.865L263.981 106.482Z" fill="url(#paint8_linear_2449_179403)"/>
<path d="M200.145 82.5875V73.5498L221.915 87.4605V96.4982L200.145 82.5875Z" fill="#98ACCC"/>
<path opacity="0.6" d="M249.155 105.108L236.516 97.0361V99.9557L249.155 108.027V105.108Z" fill="white"/>
<path opacity="0.6" d="M249.152 110.97L224.784 95.4067V98.3263L249.152 113.89V110.97Z" fill="white"/>
<path opacity="0.6" d="M249.148 116.807L219.643 97.937V100.857L249.167 119.726L249.148 116.807Z" fill="white"/>
<path d="M252.275 110.15C252.275 112.898 253.748 116.053 255.551 117.212C257.354 118.372 258.827 117.084 258.827 114.336C258.827 111.588 257.354 108.432 255.551 107.273C253.729 106.114 252.255 107.402 252.275 110.15Z" fill="white"/>
<path opacity="0.8" d="M197.738 155.225C189.46 156.971 170.844 159.225 162.729 154.252C162.79 189.438 170.742 239.365 196.739 280.539C223.144 271.5 231.809 231.784 232.421 197.019C224.306 192.024 205.914 167.071 197.738 155.225Z" fill="url(#paint9_linear_2449_179403)"/>
<path d="M189.291 162.258C181.012 164.036 162.396 166.332 154.281 161.268C154.342 197.104 162.294 247.956 188.291 289.893C214.696 280.686 223.362 240.212 223.974 204.826C215.859 199.738 197.467 174.324 189.291 162.258Z" fill="url(#paint10_linear_2449_179403)"/>
<path opacity="0.6" d="M223.971 205.71C215.786 200.675 197.301 175.547 189.075 163.607L188.069 289.894C214.616 280.805 223.336 240.751 223.971 205.71Z" fill="url(#paint11_linear_2449_179403)"/>
<defs>
<linearGradient id="paint0_linear_2449_179403" x1="225.344" y1="145.074" x2="152.78" y2="174.041" gradientUnits="userSpaceOnUse">
<stop stop-color="#D6DEEA"/>
<stop offset="1" stop-color="white" stop-opacity="0"/>
</linearGradient>
<linearGradient id="paint1_linear_2449_179403" x1="201.401" y1="6.02913" x2="83.0266" y2="84.0073" gradientUnits="userSpaceOnUse">
<stop stop-color="#E2E8F1"/>
<stop offset="1" stop-color="white" stop-opacity="0"/>
</linearGradient>
<linearGradient id="paint2_linear_2449_179403" x1="143.78" y1="32.988" x2="67.2717" y2="102.078" gradientUnits="userSpaceOnUse">
<stop stop-color="#134A89"/>
<stop offset="1" stop-color="white" stop-opacity="0"/>
</linearGradient>
<linearGradient id="paint3_linear_2449_179403" x1="187.403" y1="142.966" x2="133.179" y2="212.043" gradientUnits="userSpaceOnUse">
<stop stop-color="#134A89"/>
<stop offset="1" stop-color="white" stop-opacity="0"/>
</linearGradient>
<linearGradient id="paint4_linear_2449_179403" x1="71.9404" y1="27.6395" x2="-6.91438" y2="151.009" gradientUnits="userSpaceOnUse">
<stop stop-color="#F0E9D3"/>
<stop offset="1" stop-color="white" stop-opacity="0"/>
</linearGradient>
<linearGradient id="paint5_linear_2449_179403" x1="62.7669" y1="36.4933" x2="-16.0879" y2="159.863" gradientUnits="userSpaceOnUse">
<stop stop-color="#CBB677"/>
<stop offset="1" stop-color="#E7EDF3" stop-opacity="0.2"/>
</linearGradient>
<linearGradient id="paint6_linear_2449_179403" x1="31.4159" y1="50.4382" x2="31.4159" y2="115.607" gradientUnits="userSpaceOnUse">
<stop stop-color="#CBB677"/>
<stop offset="1" stop-color="#CBB677" stop-opacity="0"/>
</linearGradient>
<linearGradient id="paint7_linear_2449_179403" x1="227.789" y1="159.811" x2="-26.5035" y2="236.635" gradientUnits="userSpaceOnUse">
<stop stop-color="#134A89" stop-opacity="0.8"/>
<stop offset="1" stop-color="#E7EDF3" stop-opacity="0.8"/>
</linearGradient>
<linearGradient id="paint8_linear_2449_179403" x1="332.086" y1="56.1617" x2="178.896" y2="110.853" gradientUnits="userSpaceOnUse">
<stop stop-color="#134A89" stop-opacity="0.8"/>
<stop offset="1" stop-color="#E7EDF3" stop-opacity="0.8"/>
</linearGradient>
<linearGradient id="paint9_linear_2449_179403" x1="170.198" y1="159.06" x2="97.9044" y2="260.626" gradientUnits="userSpaceOnUse">
<stop stop-color="#F0E9D3"/>
<stop offset="1" stop-color="white" stop-opacity="0"/>
</linearGradient>
<linearGradient id="paint10_linear_2449_179403" x1="189.543" y1="320.722" x2="135.401" y2="163.403" gradientUnits="userSpaceOnUse">
<stop stop-color="white"/>
<stop offset="1" stop-color="#CBB677"/>
</linearGradient>
<linearGradient id="paint11_linear_2449_179403" x1="188.441" y1="159.511" x2="221.859" y2="349.242" gradientUnits="userSpaceOnUse">
<stop stop-color="#CBB677"/>
<stop offset="1" stop-color="white" stop-opacity="0"/>
</linearGradient>
</defs>
</svg>
