<svg width="26" height="21" viewBox="0 0 26 21" fill="none" xmlns="http://www.w3.org/2000/svg">
<path d="M22.75 0.900391H3.25C1.42188 0.900391 0 2.37305 0 4.15039V17.1504C0 18.9785 1.42188 20.4004 3.25 20.4004H22.75C24.5273 20.4004 26 18.9785 26 17.1504V4.15039C26 2.37305 24.5273 0.900391 22.75 0.900391ZM3.25 2.52539H22.75C23.6133 2.52539 24.375 3.28711 24.375 4.15039V6.0293L14.4219 13.4434C13.5586 14.1035 12.3906 14.1035 11.5273 13.4434L1.625 5.97852V4.15039C1.625 3.28711 2.33594 2.52539 3.25 2.52539ZM24.375 17.1504C24.375 18.0645 23.6133 18.7754 22.75 18.7754H3.25C2.33594 18.7754 1.625 18.0645 1.625 17.1504V8.00977L10.5625 14.7129C11.2734 15.2715 12.1367 15.5762 13 15.5762C13.8125 15.5762 14.6758 15.2715 15.4375 14.7129L24.375 8.00977V17.1504Z" fill="#888EA5"/>
</svg>
