<svg width="11" height="15" viewBox="0 0 11 15" fill="none" xmlns="http://www.w3.org/2000/svg">
<path d="M7.4375 6C7.4375 7.23047 6.45312 8.1875 5.25 8.1875C4.01953 8.1875 3.0625 7.23047 3.0625 6C3.0625 4.79688 4.01953 3.8125 5.25 3.8125C6.45312 3.8125 7.4375 4.79688 7.4375 6ZM5.25 7.3125C5.96094 7.3125 6.5625 6.73828 6.5625 6C6.5625 5.28906 5.96094 4.6875 5.25 4.6875C4.51172 4.6875 3.9375 5.28906 3.9375 6C3.9375 6.73828 4.51172 7.3125 5.25 7.3125ZM10.5 6C10.5 8.40625 7.30078 12.6445 5.87891 14.4219C5.55078 14.832 4.92188 14.832 4.59375 14.4219C3.17188 12.6445 0 8.40625 0 6C0 3.10156 2.32422 0.75 5.25 0.75C8.14844 0.75 10.5 3.10156 10.5 6ZM5.25 1.625C2.81641 1.625 0.875 3.59375 0.875 6C0.875 6.4375 1.01172 7.01172 1.3125 7.75C1.61328 8.46094 2.02344 9.22656 2.51562 9.99219C3.44531 11.4961 4.53906 12.9453 5.25 13.8203C5.93359 12.9453 7.02734 11.4961 7.95703 9.99219C8.44922 9.22656 8.85938 8.46094 9.16016 7.75C9.46094 7.01172 9.625 6.4375 9.625 6C9.625 3.59375 7.65625 1.625 5.25 1.625Z" fill="#888EA5"/>
</svg>
