<svg width="26" height="21" viewBox="0 0 26 21" fill="none" xmlns="http://www.w3.org/2000/svg">
<path d="M3.625 1.75C2.57031 1.75 1.75 2.60938 1.75 3.625V7.375C1.75 7.72656 1.4375 8 1.125 8C0.773438 8 0.5 7.72656 0.5 7.375V3.625C0.5 1.90625 1.86719 0.5 3.625 0.5H22.375C24.0938 0.5 25.5 1.90625 25.5 3.625V7.375C25.5 7.72656 25.1875 8 24.875 8C24.5234 8 24.25 7.72656 24.25 7.375V3.625C24.25 2.60938 23.3906 1.75 22.375 1.75H3.625ZM19.875 4.25C20.1875 4.25 20.5 4.5625 20.5 4.875V18.3125C20.5 19.5234 19.4844 20.5 18.3125 20.5H7.6875C6.47656 20.5 5.5 19.5234 5.5 18.3125V4.875C5.5 4.5625 5.77344 4.25 6.125 4.25C6.4375 4.25 6.75 4.5625 6.75 4.875V18.3125C6.75 18.8594 7.14062 19.25 7.6875 19.25H18.3125C18.8203 19.25 19.25 18.8594 19.25 18.3125V4.875C19.25 4.5625 19.5234 4.25 19.875 4.25ZM13 14.875C10.6562 14.875 8.625 13.3125 8.625 11.125C8.625 8.97656 10.6562 7.375 13 7.375C15.3047 7.375 17.375 8.97656 17.375 11.125C17.375 13.3125 15.3047 14.875 13 14.875ZM9.875 11.125C9.875 12.4141 11.125 13.625 13 13.625C14.8359 13.625 16.125 12.4141 16.125 11.125C16.125 9.875 14.8359 8.625 13 8.625C11.125 8.625 9.875 9.875 9.875 11.125Z" fill="#363E59"/>
</svg>
