<svg width="15" height="15" viewBox="0 0 15 15" fill="none" xmlns="http://www.w3.org/2000/svg">
<path d="M13.2344 9.80078L10.4453 8.59766C9.95312 8.40625 9.35156 8.54297 9.02344 8.98047L8.09375 10.0742C6.67188 9.28125 5.46875 8.07812 4.67578 6.65625L5.79688 5.75391C6.20703 5.39844 6.34375 4.79688 6.125 4.30469L4.94922 1.51562C4.70312 0.96875 4.10156 0.667969 3.52734 0.804688L0.957031 1.40625C0.382812 1.51562 0 2.00781 0 2.60938C0 9.30859 5.44141 14.75 12.1406 14.75C12.7422 14.75 13.2344 14.3672 13.3711 13.793L13.9453 11.2227C14.082 10.6484 13.7812 10.0469 13.2344 9.80078ZM12.4961 13.6016C12.4688 13.7656 12.332 13.9023 12.1406 13.9023C5.93359 13.9023 0.875 8.81641 0.875 2.60938C0.875 2.41797 0.984375 2.28125 1.14844 2.25391L3.71875 1.65234C3.74609 1.65234 3.77344 1.625 3.80078 1.625C3.9375 1.625 4.07422 1.73438 4.15625 1.87109L5.33203 4.63281C5.38672 4.79688 5.35938 4.96094 5.22266 5.07031L3.85547 6.19141C3.69141 6.32812 3.63672 6.54688 3.74609 6.73828C4.64844 8.57031 6.17969 10.1016 8.03906 11.0039C8.20312 11.1133 8.42188 11.0586 8.55859 10.8945L9.67969 9.52734C9.78906 9.39062 9.95312 9.36328 10.1172 9.41797L12.8789 10.5938C13.043 10.6758 13.1523 10.8398 13.0977 11.0312L12.4961 13.6016Z" fill="#888EA5"/>
</svg>
