<svg width="27" height="28" viewBox="0 0 27 28" fill="none" xmlns="http://www.w3.org/2000/svg">
<path d="M24.5781 17.8594L19.3984 15.625C18.4844 15.2695 17.3672 15.5234 16.7578 16.3359L15.0312 18.3672C12.3906 16.8945 10.1562 14.6602 8.68359 12.0195L10.7656 10.3438C11.5273 9.68359 11.7812 8.56641 11.375 7.65234L9.19141 2.47266C8.73438 1.45703 7.61719 0.898438 6.55078 1.15234L1.77734 2.26953C0.710938 2.47266 0 3.38672 0 4.50391C0 16.9453 10.1055 27.0508 22.5469 27.0508C23.6641 27.0508 24.5781 26.3398 24.832 25.2734L25.8984 20.5C26.1523 19.4336 25.5938 18.3164 24.5781 17.8594ZM23.207 24.918C23.1562 25.2227 22.9023 25.4766 22.5469 25.4766C11.0195 25.4766 1.625 16.0312 1.625 4.50391C1.625 4.14844 1.82812 3.89453 2.13281 3.84375L6.90625 2.72656C6.95703 2.72656 7.00781 2.67578 7.05859 2.67578C7.3125 2.67578 7.56641 2.87891 7.71875 3.13281L9.90234 8.26172C10.0039 8.56641 9.95312 8.87109 9.69922 9.07422L7.16016 11.1562C6.85547 11.4102 6.75391 11.8164 6.95703 12.1719C8.63281 15.5742 11.4766 18.418 14.9297 20.0938C15.2344 20.2969 15.6406 20.1953 15.8945 19.8906L17.9766 17.3516C18.1797 17.0977 18.4844 17.0469 18.7891 17.1484L23.918 19.332C24.2227 19.4844 24.4258 19.7891 24.3242 20.1445L23.207 24.918Z" fill="#888EA5"/>
</svg>
