<svg width="21" height="21" viewBox="0 0 21 21" fill="none" xmlns="http://www.w3.org/2000/svg">
<path d="M18.9062 13.4297L14.9219 11.7109C14.2188 11.4375 13.3594 11.6328 12.8906 12.2578L11.5625 13.8203C9.53125 12.6875 7.8125 10.9688 6.67969 8.9375L8.28125 7.64844C8.86719 7.14062 9.0625 6.28125 8.75 5.57812L7.07031 1.59375C6.71875 0.8125 5.85938 0.382812 5.03906 0.578125L1.36719 1.4375C0.546875 1.59375 0 2.29688 0 3.15625C0 12.7266 7.77344 20.5 17.3438 20.5C18.2031 20.5 18.9062 19.9531 19.1016 19.1328L19.9219 15.4609C20.1172 14.6406 19.6875 13.7812 18.9062 13.4297ZM17.8516 18.8594C17.8125 19.0938 17.6172 19.2891 17.3438 19.2891C8.47656 19.2891 1.25 12.0234 1.25 3.15625C1.25 2.88281 1.40625 2.6875 1.64062 2.64844L5.3125 1.78906C5.35156 1.78906 5.39062 1.75 5.42969 1.75C5.625 1.75 5.82031 1.90625 5.9375 2.10156L7.61719 6.04688C7.69531 6.28125 7.65625 6.51562 7.46094 6.67188L5.50781 8.27344C5.27344 8.46875 5.19531 8.78125 5.35156 9.05469C6.64062 11.6719 8.82812 13.8594 11.4844 15.1484C11.7188 15.3047 12.0312 15.2266 12.2266 14.9922L13.8281 13.0391C13.9844 12.8438 14.2188 12.8047 14.4531 12.8828L18.3984 14.5625C18.6328 14.6797 18.7891 14.9141 18.7109 15.1875L17.8516 18.8594Z" fill="#363E59"/>
</svg>
