<svg width="164" height="256" viewBox="0 0 164 256" fill="none" xmlns="http://www.w3.org/2000/svg">
<path opacity="0.8" d="M91.2068 1.83535C73.8323 5.13064 34.7611 9.38532 17.729 0C17.8574 66.4063 34.5472 160.635 89.1099 238.345C144.529 221.285 162.716 146.328 164 80.7137C146.968 71.2867 108.367 24.1933 91.2068 1.83535Z" fill="url(#paint0_linear_2474_181093)"/>
<path d="M73.4778 15.1096C56.1033 18.4659 17.0321 22.7994 0 13.2402C0.128383 80.8763 16.8182 176.85 71.3809 255.999C126.8 238.623 144.987 162.235 146.271 95.4487C129.239 85.8471 90.6384 37.8815 73.4778 15.1096Z" fill="url(#paint1_linear_2474_181093)"/>
<path opacity="0.6" d="M146.268 97.1173C129.088 87.6154 90.2924 40.1902 73.0261 17.6548L70.9163 256C126.633 238.846 144.933 163.252 146.268 97.1173Z" fill="url(#paint2_linear_2474_181093)"/>
<defs>
<linearGradient id="paint0_linear_2474_181093" x1="33.4066" y1="9.07282" x2="-97.7266" y2="213.946" gradientUnits="userSpaceOnUse">
<stop stop-color="#F0E9D3"/>
<stop offset="1" stop-color="white" stop-opacity="0"/>
</linearGradient>
<linearGradient id="paint1_linear_2474_181093" x1="74.0085" y1="314.184" x2="-19.781" y2="11.1296" gradientUnits="userSpaceOnUse">
<stop stop-color="white"/>
<stop offset="1" stop-color="#CBB677"/>
</linearGradient>
<linearGradient id="paint2_linear_2474_181093" x1="71.6956" y1="9.92517" x2="128.74" y2="370.084" gradientUnits="userSpaceOnUse">
<stop stop-color="#CBB677"/>
<stop offset="1" stop-color="white" stop-opacity="0"/>
</linearGradient>
</defs>
</svg>
