<svg width="14" height="13" viewBox="0 0 14 13" fill="none" xmlns="http://www.w3.org/2000/svg">
<path d="M12.6016 1.90625C13.0938 2.42188 13.0938 3.24219 12.6016 3.75781L5.26562 11.0938C4.98438 11.3516 4.65625 11.5625 4.30469 11.6562L1.46875 12.5C1.32812 12.5234 1.1875 12.5 1.09375 12.4062C1 12.3125 0.953125 12.1719 1 12.0312L1.84375 9.19531C1.9375 8.84375 2.14844 8.51562 2.40625 8.23438L9.74219 0.898438C10.2578 0.40625 11.0781 0.40625 11.5938 0.898438L12.6016 1.90625ZM8.99219 2.72656L10.7734 4.50781L12.0625 3.24219C12.2734 3.00781 12.2734 2.65625 12.0625 2.44531L11.0547 1.4375C10.8438 1.22656 10.4922 1.22656 10.2578 1.4375L8.99219 2.72656ZM8.45312 3.24219L2.94531 8.77344C2.75781 8.9375 2.61719 9.17188 2.54688 9.40625L1.91406 11.5859L4.09375 10.9531C4.32812 10.8828 4.5625 10.7422 4.72656 10.5547L10.2344 5.04688L8.45312 3.24219Z" fill="#4E73AA"/>
</svg>
