<svg width="28" height="28" viewBox="0 0 28 28" fill="none" xmlns="http://www.w3.org/2000/svg">
<rect width="28" height="28" rx="10" fill="#CBB677"/>
<path d="M19.25 14.625H15.75C15.5039 14.625 15.3125 14.8438 15.3125 15.0625C15.3125 15.3086 15.5039 15.5 15.75 15.5H19.25C19.4688 15.5 19.6875 15.3086 19.6875 15.0625C19.6875 14.8438 19.4688 14.625 19.25 14.625ZM11.375 13.75C12.332 13.75 13.125 12.9844 13.125 12C13.125 11.043 12.332 10.25 11.375 10.25C10.3906 10.25 9.625 11.043 9.625 12C9.625 12.9844 10.3906 13.75 11.375 13.75ZM11.375 11.125C11.8398 11.125 12.25 11.5352 12.25 12C12.25 12.4922 11.8398 12.875 11.375 12.875C10.8828 12.875 10.5 12.4922 10.5 12C10.5 11.5352 10.8828 11.125 11.375 11.125ZM12.25 14.625H10.5C9.26953 14.625 8.3125 15.6094 8.3125 16.8125C8.3125 17.0586 8.50391 17.25 8.75 17.25C8.96875 17.25 9.1875 17.0586 9.1875 16.8125C9.1875 16.1016 9.76172 15.5 10.5 15.5H12.25C12.9609 15.5 13.5625 16.1016 13.5625 16.8125C13.5625 17.0586 13.7539 17.25 14 17.25C14.2188 17.25 14.4375 17.0586 14.4375 16.8125C14.4375 15.6094 13.4531 14.625 12.25 14.625ZM20.125 7.625H7.875C6.89062 7.625 6.125 8.41797 6.125 9.375V18.125C6.125 19.1094 6.89062 19.875 7.875 19.875H20.125C21.082 19.875 21.875 19.1094 21.875 18.125V9.375C21.875 8.41797 21.082 7.625 20.125 7.625ZM21 18.125C21 18.6172 20.5898 19 20.125 19H7.875C7.38281 19 7 18.6172 7 18.125V9.375C7 8.91016 7.38281 8.5 7.875 8.5H20.125C20.5898 8.5 21 8.91016 21 9.375V18.125ZM19.25 12.875H15.75C15.5039 12.875 15.3125 13.0938 15.3125 13.3125C15.3125 13.5586 15.5039 13.75 15.75 13.75H19.25C19.4688 13.75 19.6875 13.5586 19.6875 13.3125C19.6875 13.0938 19.4688 12.875 19.25 12.875ZM19.25 11.125H15.75C15.5039 11.125 15.3125 11.3438 15.3125 11.5625C15.3125 11.8086 15.5039 12 15.75 12H19.25C19.4688 12 19.6875 11.8086 19.6875 11.5625C19.6875 11.3438 19.4688 11.125 19.25 11.125Z" fill="white"/>
</svg>
