<svg width="24" height="24" viewBox="0 0 24 24" fill="none" xmlns="http://www.w3.org/2000/svg">
<rect width="24" height="24" rx="8" fill="#CBB677"/>
<path d="M16.25 13.25H13.25C13.0391 13.25 12.875 13.4375 12.875 13.625C12.875 13.8359 13.0391 14 13.25 14H16.25C16.4375 14 16.625 13.8359 16.625 13.625C16.625 13.4375 16.4375 13.25 16.25 13.25ZM9.5 12.5C10.3203 12.5 11 11.8438 11 11C11 10.1797 10.3203 9.5 9.5 9.5C8.65625 9.5 8 10.1797 8 11C8 11.8438 8.65625 12.5 9.5 12.5ZM9.5 10.25C9.89844 10.25 10.25 10.6016 10.25 11C10.25 11.4219 9.89844 11.75 9.5 11.75C9.07812 11.75 8.75 11.4219 8.75 11C8.75 10.6016 9.07812 10.25 9.5 10.25ZM10.25 13.25H8.75C7.69531 13.25 6.875 14.0938 6.875 15.125C6.875 15.3359 7.03906 15.5 7.25 15.5C7.4375 15.5 7.625 15.3359 7.625 15.125C7.625 14.5156 8.11719 14 8.75 14H10.25C10.8594 14 11.375 14.5156 11.375 15.125C11.375 15.3359 11.5391 15.5 11.75 15.5C11.9375 15.5 12.125 15.3359 12.125 15.125C12.125 14.0938 11.2812 13.25 10.25 13.25ZM17 7.25H6.5C5.65625 7.25 5 7.92969 5 8.75V16.25C5 17.0938 5.65625 17.75 6.5 17.75H17C17.8203 17.75 18.5 17.0938 18.5 16.25V8.75C18.5 7.92969 17.8203 7.25 17 7.25ZM17.75 16.25C17.75 16.6719 17.3984 17 17 17H6.5C6.07812 17 5.75 16.6719 5.75 16.25V8.75C5.75 8.35156 6.07812 8 6.5 8H17C17.3984 8 17.75 8.35156 17.75 8.75V16.25ZM16.25 11.75H13.25C13.0391 11.75 12.875 11.9375 12.875 12.125C12.875 12.3359 13.0391 12.5 13.25 12.5H16.25C16.4375 12.5 16.625 12.3359 16.625 12.125C16.625 11.9375 16.4375 11.75 16.25 11.75ZM16.25 10.25H13.25C13.0391 10.25 12.875 10.4375 12.875 10.625C12.875 10.8359 13.0391 11 13.25 11H16.25C16.4375 11 16.625 10.8359 16.625 10.625C16.625 10.4375 16.4375 10.25 16.25 10.25Z" fill="white"/>
</svg>
